<?xml version="1.0" standalone="no"?>
<!DOCTYPE svg PUBLIC "-//W3C//DTD SVG 1.1//EN" "http://www.w3.org/Graphics/SVG/1.1/DTD/svg11.dtd" >
<svg xmlns="http://www.w3.org/2000/svg" xmlns:xlink="http://www.w3.org/1999/xlink" version="1.1">
<metadata>
Created by FontForge 20170731 at Tue Mar 30 13:36:53 2021
 By Aleksey,,,
</metadata>
<defs>
<font id="Handwriting_j-Regular" horiz-adv-x="250" >
  <font-face 
    font-family="Handwriting_j"
    font-weight="400"
    font-stretch="normal"
    units-per-em="1000"
    panose-1="2 0 5 3 0 0 0 0 0 0"
    ascent="800"
    descent="-200"
    x-height="474"
    cap-height="729"
    bbox="33 -128 597.25 758"
    underline-thickness="50"
    underline-position="-150"
    unicode-range="U+000D-00A0"
  />
<missing-glyph horiz-adv-x="364" 
d="M33 0v666h265v-666h-265zM66 33h199v600h-199v-600z" />
    <glyph glyph-name=".notdef" horiz-adv-x="364" 
d="M33 0v666h265v-666h-265zM66 33h199v600h-199v-600z" />
    <glyph glyph-name=".null" 
 />
    <glyph glyph-name=".null" 
 />
    <glyph glyph-name="nonmarkingreturn" horiz-adv-x="333" 
 />
    <glyph glyph-name="CR" unicode="&#xd;" 
 />
    <glyph glyph-name="space" unicode=" " 
 />
    <glyph glyph-name="exclam" unicode="!" horiz-adv-x="170" 
d="M88 697q3 5 12.5 5t12.5 -4q1 -2 5 -238q2 -140 2 -154q0 -79 -7 -82q-2 -1 -6 -1q-15 0 -19 73q-3 51 -3 210q0 185 3 191zM62 142q7 8 22 8q23 0 31 -16q5 -10 5 -17q0 -13 -10 -23t-23 -10q-7 0 -17 5q-16 8 -16 31q0 15 8 22z" />
    <glyph glyph-name="quotedbl" unicode="&#x22;" horiz-adv-x="204" 
d="M117 655q0 51 14 51q1 0 11 -4q8 -4 8 -22q0 -13 -1 -23q-3 -50 -14 -50q-3 0 -8 3q-10 5 -10 45zM54 649q2 34 4.5 41t10.5 7q17 0 17 -40q0 -3 -0.5 -11.5t-0.5 -13.5v-2q-2 -36 -7 -38q-2 -1 -5 -2h-5q-15 0 -15 33q0 16 1 26z" />
    <glyph glyph-name="quotedbl" unicode="&#x201e;" horiz-adv-x="204" 
d="M117 655q0 51 14 51q1 0 11 -4q8 -4 8 -22q0 -13 -1 -23q-3 -50 -14 -50q-3 0 -8 3q-10 5 -10 45zM54 649q2 34 4.5 41t10.5 7q17 0 17 -40q0 -3 -0.5 -11.5t-0.5 -13.5v-2q-2 -36 -7 -38q-2 -1 -5 -2h-5q-15 0 -15 33q0 16 1 26z" />
    <glyph glyph-name="quotedbl" unicode="&#x201d;" horiz-adv-x="204" 
d="M117 655q0 51 14 51q1 0 11 -4q8 -4 8 -22q0 -13 -1 -23q-3 -50 -14 -50q-3 0 -8 3q-10 5 -10 45zM54 649q2 34 4.5 41t10.5 7q17 0 17 -40q0 -3 -0.5 -11.5t-0.5 -13.5v-2q-2 -36 -7 -38q-2 -1 -5 -2h-5q-15 0 -15 33q0 16 1 26z" />
    <glyph glyph-name="quotedbl" unicode="&#x201c;" horiz-adv-x="204" 
d="M117 655q0 51 14 51q1 0 11 -4q8 -4 8 -22q0 -13 -1 -23q-3 -50 -14 -50q-3 0 -8 3q-10 5 -10 45zM54 649q2 34 4.5 41t10.5 7q17 0 17 -40q0 -3 -0.5 -11.5t-0.5 -13.5v-2q-2 -36 -7 -38q-2 -1 -5 -2h-5q-15 0 -15 33q0 16 1 26z" />
    <glyph glyph-name="ampersand" unicode="&#x26;" horiz-adv-x="417" 
d="M182 277q0 4 -11.5 18.5t-14.5 14.5q-5 0 -28.5 -37t-30.5 -55q-8 -21 -8 -42q0 -43 44 -43q14 0 22 2q30 7 57 33l29 27l-15 17q-12 14 -28 37.5t-16 27.5zM238 643q-7 21 -21 21q-9 0 -26 -6q-36 -14 -50.5 -33t-14.5 -58q0 -20 5 -58q5 -32 16.5 -72.5t17.5 -42.5h1
q5 0 20.5 26t16.5 27q5 3 5 11q0 5 17 41q16 35 18 79v18q0 34 -5 47zM162 681q26 15 51 15h8l31 -2l12 -24q12 -26 12 -76q0 -48 -12 -84q-23 -65 -72 -145q-6 -9 -6 -15t14 -34q10 -21 31 -54q13 -20 13 -23q0 -6 7 -11t25 13q35 37 53 37h1l2 -1q4 -3 4 -8q0 -11 -25 -39
t-25 -36q0 -10 39 -47q35 -34 35 -45q0 -8 -15 -8q-14 0 -49 34l-37 34l-16 -15q-46 -42 -93 -46q-7 -1 -20 -1q-45 0 -64 30q-11 18 -11 34q0 11 1 19q5 49 44 109q30 47 32 49q6 9 6 15q0 4 -5 21q-8 26 -12 34q-8 17 -18 61t-12 75q-1 9 -1 24q0 41 15.5 63.5t56.5 46.5z
" />
    <glyph glyph-name="quotesingle" unicode="'" horiz-adv-x="142" 
d="M54 681q3 5 10 5q13 0 18 -11q4 -10 6 -47q1 -8 1 -20q0 -17 -7 -21q-5 -4 -11 -4q-12 0 -16 49q-2 30 -2 38q0 10 1 11z" />
    <glyph glyph-name="quotesingle" unicode="&#x201a;" horiz-adv-x="142" 
d="M54 681q3 5 10 5q13 0 18 -11q4 -10 6 -47q1 -8 1 -20q0 -17 -7 -21q-5 -4 -11 -4q-12 0 -16 49q-2 30 -2 38q0 10 1 11z" />
    <glyph glyph-name="quotesingle" unicode="&#x2019;" horiz-adv-x="142" 
d="M54 681q3 5 10 5q13 0 18 -11q4 -10 6 -47q1 -8 1 -20q0 -17 -7 -21q-5 -4 -11 -4q-12 0 -16 49q-2 30 -2 38q0 10 1 11z" />
    <glyph glyph-name="quotesingle" unicode="&#x2018;" horiz-adv-x="142" 
d="M54 681q3 5 10 5q13 0 18 -11q4 -10 6 -47q1 -8 1 -20q0 -17 -7 -21q-5 -4 -11 -4q-12 0 -16 49q-2 30 -2 38q0 10 1 11z" />
    <glyph glyph-name="parenleft" unicode="(" horiz-adv-x="291" 
d="M180 682q21 15 36 15q19 0 19 -21q0 -4 -23 -15q-33 -14 -67 -72t-47 -121q-9 -45 -9 -83q0 -69 33 -133q10 -19 24 -37t19 -18q7 -2 31 -23q22 -18 22 -27q0 -3 -1 -4q-4 -9 -25 -6t-49 33q-30 32 -44.5 56.5t-28.5 64.5q-16 47 -16 94q0 32 8 75q10 55 40 118
q34 72 78 104z" />
    <glyph glyph-name="parenright" unicode=")" horiz-adv-x="282" 
d="M62 711q6 6 9 5.5t15 -7.5q13 -8 39.5 -45t39.5 -65q3 -7 13 -28.5t14 -30.5q14 -30 24.5 -98.5t11.5 -128.5v-21q0 -41 -13 -67q-11 -23 -53 -66t-56 -47q-8 -2 -11 -2q-14 0 -14 11q0 14 21 29q22 16 47.5 46t35.5 52q9 19 9 46q0 23 -1 40q-3 65 -17 139
q-8 44 -41 109t-61 94q-18 20 -18 25q0 4 6 10z" />
    <glyph glyph-name="comma" unicode="," horiz-adv-x="199" 
d="M108 152q12 23 21 23h3q13 -1 13 -13q0 -14 -33 -67q-34 -52 -45 -52h-1q-12 1 -12 15t12 34.5t21 27.5q8 7 21 32z" />
    <glyph glyph-name="hyphen" unicode="-" horiz-adv-x="406" 
d="M175 397q66 3 107 3q47 0 64 -5q6 -1 6 -9q0 -13 -11 -16q-20 -3 -143 -8q-69 -3 -99 -3q-29 0 -37.5 3t-8.5 13q0 11 21.5 15t100.5 7z" />
    <glyph glyph-name="period" unicode="." horiz-adv-x="175" 
d="M65 135q10 10 20 10t23 -10t13 -28q0 -29 -24 -29q-9 0 -27 8q-16 8 -16 25q0 13 11 24z" />
    <glyph glyph-name="slash" unicode="/" horiz-adv-x="323" 
d="M247 691q5 7 13 5q7 -1 7 -12q0 -21 -34 -116q-24 -66 -45 -140.5t-44 -140.5q-30 -85 -41 -121q-10 -33 -12 -38q-5 -14 -2 -14q1 0 0 -2l-4 -8q-5 -10 -15 -10q-15 0 -15 14q0 17 34 120q39 119 45 131q2 6 16 63t20 66q8 12 11 28q4 19 8 26q5 10 21 60q22 69 37 89z
" />
    <glyph glyph-name="zero" unicode="0" horiz-adv-x="513" 
d="M417 468q-1 2 -5 22t-9 33.5t-9 13.5q-6 0 -24 -37q-57 -121 -98 -182q-43 -64 -73.5 -117t-30.5 -64q0 -22 59 -22q46 0 77 16q40 20 45 23q63 32 76 182q3 33 3 56q0 37 -11 76zM278 672q-32 5 -33 5q-2 1 -9 1q-27 0 -47 -18q-51 -46 -76 -119q-14 -41 -18 -71t-5 -94
q0 -57 2.5 -75.5t16.5 -61.5q18 -60 25 -67q1 -1 3 -1q10 0 45 67q28 51 63 98q16 24 55 98q11 21 32 60t26 48l21 38l-24 35q-22 31 -36.5 42t-40.5 15zM196 700q20 10 37 10q15 0 62 -6q39 -5 79.5 -56t64.5 -125q15 -46 17.5 -64t2.5 -82q0 -72 -8.5 -110.5t-33.5 -83.5
q-29 -51 -87 -79q-45 -22 -104 -22q-51 0 -75 17q-47 34 -79 145q-12 43 -15 63.5t-3 64.5q0 61 5.5 98t22.5 88q35 105 114 142z" />
    <glyph glyph-name="one" unicode="1" horiz-adv-x="343" 
d="M157 706q8 11 13 11q12 0 18 -33q5 -27 5 -119q0 -69 -1 -116q-1 -55 -1 -138q0 -89 4 -120l7 -55l33 -3q52 -5 52 -22q0 -15 -17 -14q-4 0 -18.5 0.5t-41 1t-45.5 0.5q-63 1 -76.5 2t-17.5 8q-2 4 -2 7q0 19 58 19h38l-4 43q-3 28 -3 189v63v61q0 149 -3 149
q-11 -2 -50 -73q-22 -39 -33 -39q-3 0 -9 4q-7 6 -7 15q0 12 10 23q10 12 10 16q0 7 55 85q5 8 15 20.5t11 14.5z" />
    <glyph glyph-name="two" unicode="2" horiz-adv-x="417" 
d="M225 676q32 5 44 5q22 0 38 -17q20 -21 34.5 -74.5t15.5 -116.5q0 -6 0.5 -16.5t0.5 -15.5q0 -57 -10.5 -97.5t-41.5 -104.5q-6 -12 -29.5 -39t-38.5 -39q-18 -14 -14 -18q1 -1 45 -3q95 -2 95 -28q0 -5 -6 -11t-11 -6t-23 6q-27 8 -69 8q-39 0 -59 -7q-32 -12 -71 -12
q-11 0 -15 1q-14 3 -14 12q0 21 69 53q39 18 76.5 56t52.5 75q18 44 23 66t5 58q0 32 -1 54q-2 71 -7 99.5t-21 59.5q-8 15 -13 18t-23 3q-44 0 -97 -26q-46 -22 -71 -71q-8 -16 -20 -16q-13 0 -13 16q0 14 19 40.5t38 39.5q21 15 55.5 30t56.5 18z" />
    <glyph glyph-name="three" unicode="3" horiz-adv-x="394" 
d="M120 698q18 9 41 9q3 0 9 -0.5t10 -0.5q34 -2 51 -9q24 -12 45.5 -53.5t21.5 -79.5t-44 -77q-23 -19 -23 -24q0 -3 23 -3q34 0 57 -33.5t27 -88.5q0 -5 0.5 -12.5t0.5 -10.5q0 -22 -12 -57q-14 -35 -37 -59t-62 -43q-25 -12 -38 -15t-46 -3h-49v31h43q46 1 73 16
q32 17 54 39q39 36 39 100v14q-2 33 -8.5 50t-24.5 31q-11 8 -27 8q-13 0 -52 -3q-33 -3 -49 -3q-25 0 -25 12q0 1 0.5 3t0.5 3q1 12 39 28q28 13 62.5 38t38.5 36q3 7 3 24q0 22 -5 42q-5 19 -19 36.5t-28 25.5q-13 7 -31 7q-46 0 -87 -39q-15 -15 -25 -15q-11 0 -11 16
q0 11 20.5 30t43.5 30z" />
    <glyph glyph-name="four" unicode="4" horiz-adv-x="534" 
d="M234 698q6 5 13.5 3.5t7.5 -9.5q0 -9 -9 -35.5t-15 -34.5q-5 -8 -17 -40q-22 -60 -84 -162q-30 -48 -30 -58q0 -4 27 -4q39 0 98 6.5t78 13.5l13 4l-1 140q0 18 -0.5 43t-0.5 34q0 63 5 70q6 7 15 7q10 0 13 -8q2 -5 2 -115v-133l1 -27h45q45 0 56 8q6 5 14 5
q13 0 13 -16q0 -12 -5 -16.5t-20 -9.5q-23 -7 -62 -7h-40l-4 -40q-1 -6 -4 -67t-8 -84q-3 -16 -5.5 -19.5t-10.5 -3.5h-13l2 69q2 77 6 94q4 24 0 30q-2 3 -13 3q-10 0 -45 -5q-58 -8 -127 -8q-61 0 -67 6t-6 15q0 7 16.5 40t30.5 53q10 14 48 89t46 96q25 65 37 73z" />
    <glyph glyph-name="five" unicode="5" horiz-adv-x="469" 
d="M138 693q10 2 23 2q8 0 171 -8q42 -2 57.5 -5.5t15.5 -13.5q0 -3 -2 -9q-3 -7 -22 -7q-10 0 -29 1t-60.5 2.5t-81.5 3.5q-44 2 -54 2l-15 -1q0 -4 -7 -58q-8 -64 -21 -115q-12 -56 -12 -60q0 -2 7 -2q9 0 55 4q20 2 118 8q17 1 39 1q24 0 42 -9q25 -13 37 -36.5t15 -65.5
q0 -5 0.5 -13.5t0.5 -11.5q0 -25 -13 -56q-14 -33 -24.5 -49t-31.5 -34q-22 -17 -56 -22q-35 -6 -62 -18q-37 -17 -70 -17q-18 0 -22 6q-4 4 -4 10q0 14 31 19q25 4 40 12q14 8 63 19q42 9 61.5 22.5t36.5 45.5q15 30 15 54q0 3 -0.5 11.5t-0.5 14.5q-3 72 -29 80
q-9 3 -47 3q-145 0 -196 -15q-18 -5 -29 -5q-18 0 -21 8q-1 1 -1 5q0 14 6 32q33 120 41 190q8 61 13 66q7 7 23 9z" />
    <glyph glyph-name="six" unicode="6" horiz-adv-x="428" 
d="M233 331q-38 10 -68 10q-32 0 -45 -10q-12 -10 -22 -10q-6 0 -8 -5.5t-2 -27.5q0 -26 1 -46q2 -66 9 -90t27 -38q17 -11 54 -14h15q67 0 105 37q21 21 26.5 32t10.5 41q2 14 2 20q0 38 -25 62t-80 39zM292 694q16 7 22 4t6 -8q0 -13 -31 -38q-64 -54 -129.5 -147
t-65.5 -131q0 -16 4 -16q2 0 17 10q12 9 29 9q15 0 26 -1q101 -7 155 -51q31 -24 31 -33q0 -7 9 -20q7 -10 7 -31q0 -15 -1 -25q-2 -35 -9.5 -53.5t-29.5 -41.5q-28 -30 -56 -41t-76 -11h-22l-58 2l-19 18q-25 24 -34.5 54t-12.5 95q-1 16 -1 44q0 119 42 186q48 75 60 88
q3 3 47 54q57 69 90 84z" />
    <glyph glyph-name="seven" unicode="7" horiz-adv-x="421" 
d="M61 714q8 9 152 9q145 0 149 -9q3 -6 3 -13q0 -12 -16 -48q-15 -32 -37.5 -109.5t-23.5 -95.5q0 -6 5 -7.5t23 -1.5q29 0 32 -8q1 -2 1 -6q0 -15 -40 -20l-30 -3l-11 -50q-13 -50 -47 -137q-20 -57 -27 -64q-8 -9 -16 -28q-11 -23 -22 -23q-6 0 -10 4q-7 6 -7 14
q0 10 13 29q15 22 47.5 107t35.5 110l3 30l-53 -4q-32 -2 -36 -2q-19 0 -25 7q-4 6 -4 8q0 11 68 20q57 7 58 8q2 2 9 34q8 37 29.5 106.5t30.5 88.5q10 23 7 26t-130 3q-84 0 -106 1.5t-26 7.5q-5 8 1 16z" />
    <glyph glyph-name="eight" unicode="8" horiz-adv-x="411" 
d="M268 395q-24 24 -28 24q-5 -1 -35 -25.5t-44 -40.5q-23 -26 -29.5 -42t-6.5 -46q0 -37 3 -45q3 -7 30 -26.5t45 -26.5q13 -6 27 -6q21 0 47 14t35 33.5t9 61.5v14q0 31 -13 58q-15 30 -40 53zM243 689q-6 12 -10 12q-3 0 -18 -5q-22 -8 -47 -27.5t-39 -37.5
q-39 -55 -39 -105v-8l1 -35l46 -9q31 -6 71 -9q16 0 23 3.5t22 18.5q22 21 29.5 32.5t10.5 29.5q5 29 7 33q5 12 5 38q0 16 -3 22.5t-15 17.5q-18 16 -29 16q-10 0 -15 13zM215 731q21 7 37 7q22 0 22 -18q0 -12 9 -15q10 -4 32 -26q25 -25 25 -53q0 -18 -9 -53
q-2 -10 -5.5 -23.5t-5.5 -22t-3 -11.5q-2 -13 -27 -40l-26 -28l36 -38q34 -37 45.5 -65t11.5 -76q0 -52 -17 -81t-58 -48q-21 -10 -48 -10q-32 0 -67 18q-31 16 -47 30q-31 29 -31 86q0 26 7 48q7 23 28.5 52t42.5 43q23 15 23 21t-20 6q-25 1 -59.5 10.5t-44.5 19.5
q-11 12 -11 57q0 32 3 45t18 41q50 99 139 124z" />
    <glyph glyph-name="nine" unicode="9" horiz-adv-x="443" 
d="M311 669q0 7 -22 7q-20 0 -50 -19q-50 -33 -92 -88.5t-52 -104.5q-2 -12 -2 -14q0 -8 8 -15q16 -14 44 -14q16 0 30 7q25 16 56 50.5t45 61.5q12 24 23.5 66.5t11.5 62.5zM254 705q21 7 50 7q30 0 37 -7q6 -7 6 -145q0 -250 15 -305q26 -99 26 -128q0 -21 -15 -21
q-8 0 -15 7.5t-8 20.5q-2 22 -18 102q-15 76 -19 183l-4 102q-1 1 -4.5 -3.5t-10 -13t-13.5 -17.5q-27 -36 -63.5 -66t-57.5 -34q-5 -1 -15 -1q-30 0 -57.5 17t-30.5 39q0 1 -0.5 4t-0.5 5q0 37 35 92q21 35 26 43q10 17 43 50t53 47q16 12 41 22z" />
    <glyph glyph-name="colon" unicode=":" horiz-adv-x="155" 
d="M57 563q6 11 19 11q17 0 20 -14q1 -3 1 -9q0 -26 -16 -37q-5 -3 -9 -3q-8 0 -14 9.5t-6 22.5q0 10 5 20zM72 262q8 4 14 4q17 0 17 -30q0 -31 -21 -31q-6 0 -9 1q-16 4 -16 27q0 21 15 29z" />
    <glyph glyph-name="semicolon" unicode=";" horiz-adv-x="181" 
d="M75 605q4 1 11.5 2.5t8.5 1.5h1q9 0 20 -12t11 -22t-12.5 -24t-21.5 -14q-10 0 -24 9t-17 17q-1 2 -1 7q0 11 7.5 22t16.5 13zM66 268q6 6 17 6t16 -6q5 -7 9 -38q0 -2 0.5 -7t0.5 -8q0 -39 -13.5 -76t-29.5 -39h-4q-11 0 -11 11q0 13 10 36q12 29 12 45q0 2 -0.5 5
t-0.5 4q-4 22 -8 22t-4 16q0 23 6 29z" />
    <glyph glyph-name="question" unicode="?" horiz-adv-x="336" 
d="M133 663q23 13 56 13q32 0 47.5 -8.5t28.5 -33.5q14 -27 16 -83q1 -16 1 -38q0 -27 -16 -66q-21 -52 -33 -75q-13 -27 -17 -85q-2 -42 -4 -49.5t-11 -8.5q-1 0 -2.5 -0.5t-2.5 -0.5q-10 0 -13 10.5t-3 38.5q1 43 8 69t36 91q26 59 26 95q0 21 -6 57q-2 14 -10.5 30.5
t-14.5 21.5q-4 2 -12 2q-37 0 -59 -11q-12 -6 -45 -39q-27 -27 -34 -27q-3 0 -5 2q-8 8 -8 18t26.5 36.5t50.5 40.5zM181 139q6 7 20 7q15 0 28 -7.5t13 -18.5q0 -10 -17.5 -26t-27.5 -16q-12 0 -19 10t-7 24q0 16 10 27z" />
    <glyph glyph-name="A" unicode="A" horiz-adv-x="464" 
d="M235 623q-9 24 -14 26h-1q-9 0 -29 -84q-9 -42 -25 -95q-18 -61 -21 -81l-4 -28l28 4q10 1 29.5 5t34 5.5t32.5 1.5q27 0 27 4q0 6 -7 32q-4 15 -14 65q-14 88 -36 145zM196 701q4 6 7.5 6t19.5 -6q22 -8 40 -55.5t39 -153.5t29 -115q7 -7 7 -20q0 -9 37 -124
q13 -39 23 -59q11 -25 11 -42q0 -15 -11 -15q-8 0 -12.5 6.5t-20.5 42.5q-11 23 -26.5 68t-15.5 52t-10 32l-11 28l-39 -3q-53 -5 -61 -7q-20 -5 -48 -5h-26l-4 -27q-3 -21 -21 -98.5t-19 -80.5q-4 -19 -7.5 -24t-11.5 -5t-10 3t-2 15v13q2 32 12 64q17 54 29 132
q3 16 13.5 50.5t13.5 52.5q7 36 33.5 131t32.5 124q4 13 9 20z" />
    <glyph glyph-name="B" unicode="B" horiz-adv-x="415" 
d="M267 666q-7 7 -91 8h-37q-48 0 -51 -8q-2 -4 -2 -80q0 -112 4 -270.5t8 -165.5q2 -2 11 -2q58 0 134 24q51 16 69 34l17 17l-3 46q-2 44 -18 75q-16 30 -29 43q-12 11 -36 11q-3 0 -55 -2q-20 -1 -46 -1q-32 0 -39 7q-4 4 -4 9q0 15 53 26q67 14 102 49l23 23l-2 76
q-1 74 -8 81zM159 708q16 1 36 1.5t29.5 1t10.5 0.5h1q7 0 30 -9.5t29 -15.5t10.5 -47t4.5 -84v-19q-1 -23 -5 -32.5t-18 -29.5q-19 -28 -27 -33q-5 -2 10 -10l10 -5q35 -16 56.5 -59.5t24.5 -105.5q0 -5 0.5 -12.5t0.5 -10.5q0 -19 -14 -42q-17 -25 -43 -37
q-27 -13 -62.5 -23.5t-51.5 -10.5q-18 0 -31 -5q-11 -4 -55 -8q-12 -1 -26 -1q-15 0 -23 11q-9 13 -4 22q5 8 5 274v265l14 11q15 11 88 14z" />
    <glyph glyph-name="C" unicode="C" horiz-adv-x="445" 
d="M269 718q24 9 79 9q30 0 35 -4q7 -5 5 -14q-2 -10 -45 -13q-76 -5 -97 -23q-16 -14 -47 -32q-93 -58 -108 -189q-4 -29 -4 -72q0 -124 23 -175q8 -18 30 -38t44 -29q59 -24 141 -24h43v-15q0 -15 -10 -18q-8 -2 -24 -2q-82 0 -123 13q-42 13 -59.5 23t-48.5 38
q-27 25 -38 79.5t-11 159.5q0 61 2 79.5t11 44.5q26 75 63 116q12 12 50.5 38.5t45.5 26.5q8 0 13 7q7 5 30 14z" />
    <glyph glyph-name="D" unicode="D" horiz-adv-x="443" 
d="M233 660q-21 11 -33 13.5t-50 2.5h-55l-3 -27q-2 -16 -4 -272q0 -31 -0.5 -76t-0.5 -60q0 -80 4 -103.5t17 -23.5q3 0 15 2q21 3 95 39q36 17 70 55t48 76q21 59 21 136q0 46 -6 74.5t-26 71.5q-10 23 -37 49.5t-55 42.5zM68 709q7 9 16 5q5 -2 70 -4q43 -1 56 -3.5
t36 -15.5q24 -14 60 -45t36 -38t7 -14q8 -10 20 -39.5t16 -50.5q4 -18 6 -80v-18q0 -145 -86 -229q-19 -19 -49.5 -40.5t-41.5 -24.5q-19 -5 -40 -16q-11 -5 -40 -13t-48 -8q-16 0 -20 6q-15 21 -15 176q0 110 4 259q5 184 13 193z" />
    <glyph glyph-name="E" unicode="E" horiz-adv-x="522" 
d="M135 714q55 6 166 6q157 0 162 -9q3 -5 3 -8q0 -7 -19 -17q-18 -9 -27 -4q-8 3 -128 3q-163 0 -166 -4q-1 -1 -1 -28q0 -59 1 -98l2 -124h30q57 0 136 -4q108 -5 118 -14q8 -7 8.5 -9.5t-5.5 -8.5q-7 -7 -33 -7q-30 0 -93 4q-118 6 -139 9l-22 3l-3 -43q-1 -10 -1.5 -32
t-1.5 -54t-2 -51l-3 -94h12q22 4 37 8q21 6 85 6q35 0 57 -1q117 -2 125 -5q16 -7 16 -21q0 -5 -3 -6q-4 -2 -77 -2h-52h-53q-73 0 -105 -8q-25 -6 -38 -6q-12 0 -18 2l-19 5v41q1 26 5 287l4 246l-18 1q-19 1 -19 16q0 9 14.5 12.5t64.5 8.5z" />
    <glyph glyph-name="F" unicode="F" horiz-adv-x="539" 
d="M307 721q27 5 86 5q25 0 53 -2q19 -2 25 -4.5t9 -9.5q2 -8 2 -9q0 -12 -37 -12q-21 0 -36 1h-15q-40 0 -129 -7t-127 -7h-58l4 -40q9 -140 13 -239q1 -24 4 -24l8 4q11 7 74 8q46 0 106 5q17 2 92 5h21q28 0 30 -7q2 -8 2 -10q0 -10 -16 -13.5t-65 -5.5q-123 -7 -190 -7
q-27 0 -41 2l-20 5l1 -127v-57q0 -71 -6 -75q-5 -4 -10 -4q-9 0 -12 25t-5 99q-2 59 -7.5 195t-7.5 206l-2 88l117 4q122 4 137 8z" />
    <glyph glyph-name="G" unicode="G" horiz-adv-x="518" 
d="M314 718q16 2 25 2q11 0 31 -1.5t29 -1.5q15 0 27 -8q8 -6 8 -7.5t-8 -7.5q-9 -8 -59 -8q-45 0 -84 -16q-111 -47 -149.5 -111.5t-45.5 -217.5q-2 -38 -2 -43q0 -22 15 -63q17 -45 25 -53q23 -25 95 -34q34 -4 43 -4q31 0 68 17q21 10 27 19.5t6 36.5v21h-106v13
q0 10 6.5 12t44.5 4q55 4 94 12q30 6 43 6q17 0 17 -13q0 -17 -45 -24l-27 -3l2 -33q5 -83 5 -105q0 -27 -4 -35t-15 -8q-19 0 -19 36v7l1 22l-17 -2q-18 -2 -26 -8q-9 -8 -69 -8t-63 5q-2 3 -25 9t-45 21.5t-31 31.5q-11 20 -11 26q0 9 -10 27q-10 21 -11 97q0 120 31 206
q16 43 40 71t71 59q67 45 118 54z" />
    <glyph glyph-name="H" unicode="H" horiz-adv-x="498" 
d="M376 559q-7 70 -7 101q0 41 14 41q5 0 10 -4q7 -4 10 -50q2 -49 7 -103q2 -16 8.5 -169t11.5 -181q1 -7 3 -20t4.5 -31t3.5 -28q4 -36 4 -40q0 -21 -14 -21q-1 0 -3 0.5t-3 0.5q-9 2 -12.5 14.5t-11.5 77.5q-12 99 -17 238q-5 129 -8 174zM55 676q3 5 9 5q15 0 20 -17
q3 -13 5 -122q1 -122 4 -152q2 -4 26 -2q4 0 38 3t56 5q39 4 93 4h21l44 -2v-31l-105 -3q-109 -4 -140 -7l-34 -4l4 -83q4 -65 4 -113q0 -63 -14 -63q-2 0 -8 2q-10 5 -10 45q0 44 -5 94q-10 104 -10 375q0 62 2 66z" />
    <glyph glyph-name="I" unicode="I" horiz-adv-x="388" 
d="M148 717q17 0 30.5 1.5t29 5t22.5 4.5q1 0 8.5 0.5t12.5 0.5q11 0 47 -2q5 0 3 -14q-1 -10 -7 -12.5t-36 -4.5q-46 -4 -56.5 -8t-10.5 -21q0 -2 0.5 -7.5t0.5 -8.5q9 -173 11 -311q4 -191 7 -196q8 -5 63 -5q53 0 57 -3q2 -4 2 -11q0 -12 -23.5 -15.5t-99.5 -3.5
q-84 0 -107 3t-23 13q0 20 54 20h34l1 61q2 130 2 172q0 108 -4 140q-3 25 -5 98l-1 70l-29 -2q-6 0 -25.5 -1t-26.5 -2q-16 0 -19.5 2t-3.5 11q0 8 4.5 11.5t22.5 7.5q19 5 65 7z" />
    <glyph glyph-name="J" unicode="J" horiz-adv-x="427" 
d="M189 737q17 4 101 4q58 -1 67.5 -2.5t11.5 -10.5q2 -14 -5 -17q-5 -4 -58 -4q-47 0 -47 -5q0 -1 2 -5q6 -11 11 -69q7 -72 15 -116q12 -60 12 -145q0 -84 -12 -144q-10 -52 -18.5 -69.5t-27.5 -27.5q-19 -11 -60 -11q-44 0 -71 13q-22 10 -38.5 25.5t-16.5 26.5
q0 12 15 12q11 0 20 -9q19 -19 37 -25t53 -6q32 0 39 2t15 13q28 38 28 195q0 102 -5 125q-15 73 -18 155l-1 63l-68 -2q-21 -1 -46 -1q-23 0 -26 7q-2 6 -2 9q0 16 30 16h9h14q25 0 40 3z" />
    <glyph glyph-name="K" unicode="K" horiz-adv-x="449" 
d="M66 690q3 12 16 12q9 0 10.5 -5t2.5 -35q3 -240 5 -240q3 0 24 32q37 55 101 129q31 35 46 58q17 24 20 24q2 0 13 18q9 18 20 18h3q15 -2 15 -11q0 -8 -25 -43.5t-53 -67.5q-32 -38 -77.5 -98t-51.5 -74q-1 -2 -1 -6q0 -8 35 -43q61 -58 93 -86q55 -46 55 -52
q0 -4 18 -24q20 -22 26 -34q5 -11 18 -21q14 -9 14 -25q0 -10 -7 -17q-8 -6 -13 -6q-12 0 -27 31q-14 28 -67 81q-49 49 -110 106.5t-65 57.5q-3 0 -5 -47q-1 -82 -8.5 -146.5t-17.5 -71.5q-10 -5 -17 2q-5 7 -5 19q0 11 3 38q5 46 7 282q2 222 5 245z" />
    <glyph glyph-name="L" unicode="L" horiz-adv-x="454" 
d="M54 697q3 5 12 5q15 0 17 -9v-5q0 -4 0.5 -12t0.5 -18v-24v-28q0 -22 -0.5 -89t-0.5 -107l-1 -274l95 1h31q176 0 186 -10q5 -5 3 -14q0 -3 -2 -4.5t-9.5 -2.5t-21 -1.5t-37.5 -0.5q-56 0 -100 1q-168 2 -173 7q-4 4 -4 291q0 286 4 294z" />
    <glyph glyph-name="M" unicode="M" horiz-adv-x="554" 
d="M57 707q5 3 9 3q8 0 14 -18q5 -16 11 -16q14 0 40 -74q8 -25 50.5 -116.5t48.5 -105.5q12 -29 21 -49q12 -26 15 -26t6 5q7 10 7 18q0 23 76 140q56 87 78 179q7 31 16 40q7 9 17 9t15 -11q4 -14 13 -241t9 -317q0 -25 -1 -29q-2 -10 -5 -13t-10 -3h-13l-3 117
q-2 66 -7.5 178.5t-7.5 154.5q0 48 -6 48q-5 0 -5 -12q0 -22 -78 -144q-45 -74 -57 -109q-15 -44 -23.5 -59.5t-17.5 -15.5q-8 0 -19.5 13.5t-15.5 27.5q-5 18 -50 117q-3 8 -12.5 27t-11.5 25q-4 11 -25 55t-27 64q-8 29 -16 42l-9 15v-49v-108q0 -193 2 -293v-29
q0 -47 -3 -53q-4 -8 -11 -9t-13 6q-5 7 -7 309q-1 77 -1 178q0 125 7 129z" />
    <glyph glyph-name="N" unicode="N" horiz-adv-x="528" 
d="M454 706q9 6 17 1q5 -3 6 -48t1 -243v-287l-12 -2h-3q-9 0 -25 14q-3 3 -20 18.5t-27 24.5q-21 19 -49.5 58t-36.5 58q-5 11 -33 43q-27 29 -50 69q-19 34 -34 51q-10 12 -46 74q-5 9 -11 19.5t-9.5 16.5t-8 13t-7 11t-5 7.5t-4.5 5t-3 1.5q-6 0 -6 -36q0 -40 1 -70
q6 -253 17 -354q1 -8 1 -21q0 -29 -20 -29h-4q-7 0 -10.5 38t-14.5 231q-4 63 -4 169q0 79 2 103q2 33 4.5 39.5t10.5 8.5q11 2 11 -3q0 -6 7 -6q8 0 30 -40q12 -21 34 -59t29 -51q13 -24 22 -34q14 -18 44 -69q16 -28 30 -41q37 -39 70 -92q7 -12 33 -49q10 -14 32 -35.5
t27 -21.5q7 0 7 56q0 33 -1 55q-3 111 -3 178q0 74 1 118q1 105 10 110z" />
    <glyph glyph-name="O" unicode="O" horiz-adv-x="546" 
d="M289 681q-7 10 -24 10q-8 0 -17 -3q-12 -4 -51 -33t-59 -47q-25 -23 -39 -56q-12 -33 -12 -83v-28q1 -96 21 -154q1 -3 3.5 -11.5t6 -20t6.5 -20.5q16 -54 55 -78q17 -10 89 -10q53 1 68 3t38 12q48 22 64.5 61t20.5 138q1 24 1 57q0 43 -14 88q-7 25 -40.5 81t-50.5 71
q-21 17 -30 17q-6 0 -10 -1q-19 -4 -26 7zM241 717q16 10 41 10q17 0 23 -7q8 -8 21 -8q11 0 34 -14t37 -29q17 -19 50 -83.5t41 -96.5q7 -27 7 -70q0 -30 -1 -50q-3 -98 -18.5 -148t-50.5 -73q-33 -21 -62 -28.5t-79 -7.5h-24q-56 2 -69.5 3.5t-25.5 10.5q-33 23 -47 42.5
t-28 60.5q-36 104 -36 192q0 6 0.5 19t0.5 20q4 87 12 104q26 56 46 71q89 70 109 75q15 4 19 7z" />
    <glyph glyph-name="P" unicode="P" horiz-adv-x="400" 
d="M102 723q15 10 49 10q29 0 48 -8q14 -5 50 -29q58 -39 77 -70.5t20 -87.5v-14q0 -34 -4 -44q-25 -43 -152 -84q-21 -7 -61 -7q-23 0 -31 4q-6 4 -5.5 11t6.5 11q7 5 47 10q85 12 140 49q16 10 20 17t6 26q2 18 2 25q0 40 -21 68q-14 19 -44 43t-52 34q-21 9 -56 9
q-27 0 -41 -6l-13 -6l-1 -86q-1 -47 -1 -268q-1 -134 -3 -163.5t-13 -29.5q-1 0 -3 0.5t-3 0.5q-10 2 -10 271v270l18 18q13 13 31 26z" />
    <glyph glyph-name="Q" unicode="Q" horiz-adv-x="653" 
d="M340 663q-29 22 -56 25q-16 2 -18 2q-12 0 -34 -18q-29 -23 -66 -64t-50 -64q-28 -50 -28 -128q0 -50 14 -90q22 -60 63 -119q15 -22 23.5 -28.5t28.5 -12.5q35 -10 75 -10q62 0 62 16q0 7 -94 46q-29 12 -29 23q0 4 5 9q4 4 10 4q9 0 21 -5q52 -17 104 -45q8 -5 13 -5
q12 0 34 48q18 39 27 63q3 14 5 127v112l-14 23q-23 40 -96 91zM208 696q10 10 36.5 23t44.5 13q12 0 18 -7q8 -8 14 -8q10 0 22 -14q15 -15 38 -29q23 -13 52 -42t37 -47q19 -41 19 -163q0 -66 -7 -102t-30 -85l-21 -46q0 -14 102 -20l62 -4l2 -14q2 -13 -12 -17
q-4 -1 -18 -1q-32 0 -85 7t-73 15h-3q-12 0 -29 -13q-29 -20 -79 -20q-21 0 -34 1q-68 4 -107 40q-19 19 -46 65.5t-41 86.5q-15 39 -15 68q0 21 1 36q3 76 16 110t63 96q29 34 46 48q13 9 27 23z" />
    <glyph glyph-name="R" unicode="R" horiz-adv-x="469" 
d="M179 692q-4 4 -28 4q-27 0 -45 -5l-16 -5l-4 -70q-3 -58 -3 -125v-54l32 3q116 11 176 81q34 39 34 72q0 11 -1 17q-3 23 -11 33.5t-26 14.5q-34 9 -72 20q-31 9 -36 14zM118 727q21 4 38 4q19 0 45 -11q20 -9 50 -17q3 -1 13.5 -3.5t14 -4t12.5 -4t13.5 -4.5t11 -5.5
t12 -7t10.5 -8.5l19 -18v-45q0 -44 -12 -66q-54 -94 -168 -122q-41 -10 -41 -17q0 -6 27 -20q13 -7 28.5 -21t21.5 -19q12 -8 61 -57.5t74 -79.5q23 -28 42 -37q18 -8 22 -21q1 -2 1 -6q0 -8 -6 -14.5t-13 -6.5q-17 0 -129 123q-36 40 -100 93t-77 53q-5 0 -5 -136
q0 -137 -8 -144t-17 -1q-8 5 -8 122q0 96 1 170q2 297 2 298q1 10 20 19t45 14z" />
    <glyph glyph-name="S" unicode="S" horiz-adv-x="417" 
d="M222 753q15 5 31 5q12 0 20 -4q7 -3 5 -17q-1 -8 -6 -10.5t-24 -4.5q-29 -3 -45 -14q-16 -12 -30 -15q-15 -3 -35.5 -22t-30.5 -39q-13 -25 -13 -61q0 -52 24 -73q10 -9 38 -19.5t43 -10.5q39 -1 80 -19t50 -39q35 -80 35 -151q0 -59 -14 -82t-65 -47q-40 -19 -96 -22
q-38 -2 -41 -2q-18 0 -24 7q-5 5 -5 11q0 14 52 18q47 4 68.5 9t47.5 19q28 14 36 31t8 59q0 50 -15.5 95t-38.5 60q-10 7 -61 15q-69 11 -93.5 22t-46.5 42q-19 26 -19 69q0 65 39 115q22 27 67 49q47 23 59 26z" />
    <glyph glyph-name="T" unicode="T" horiz-adv-x="574" 
d="M299 720q4 4 17 0q8 -2 96 -6q74 -2 90 -4.5t16 -12.5q0 -12 -10 -16t-43 -4q-28 0 -47 1l-86 2l-3 -16q-1 -5 -1 -23q0 -52 8 -104q3 -12 5 -208v-86q0 -48 -1 -70t-2.5 -28t-5.5 -8q-10 -6 -18 1q-8 5 -11 219q-3 322 -10 324q-21 0 -112 3q-112 4 -119 11q-8 8 2 15
q9 7 121 7h32q79 0 82 3z" />
    <glyph glyph-name="U" unicode="U" horiz-adv-x="521" 
d="M66 708q8 6 12 6q9 0 11 -34.5t4 -160.5q1 -168 9 -218.5t39 -103.5q21 -37 38 -48q29 -20 101 -20q42 0 58 10q24 15 42 44.5t18 54.5q0 10 15 59q11 33 13.5 57t4.5 119q4 144 5 159q0 8 0.5 27.5t1.5 25.5q1 22 11 22q13 0 17 -11.5t4 -57.5q0 -12 -2 -104
q-1 -55 -2.5 -89.5t-2.5 -56.5t-5 -45t-5.5 -30.5t-10 -38t-11.5 -44.5q-21 -92 -82 -122q-25 -13 -72 -13h-6q-67 0 -104 22t-66 78q-25 47 -32.5 105.5t-10.5 217.5l-4 182z" />
    <glyph glyph-name="V" unicode="V" horiz-adv-x="542" 
d="M451 693q9 19 19 19q7 0 13 -7q6 -9 0 -23q-8 -15 -11 -37q-19 -95 -72 -263q-27 -83 -59 -155q-35 -75 -39 -91q-5 -20 -16 -33.5t-23 -13.5q-13 0 -24.5 11.5t-22 37.5t-16.5 43.5t-16.5 54.5t-12.5 45q-10 35 -26 101q-13 62 -44 155q-10 29 -15 52q-3 13 -19 54
q-11 25 -11 41q0 15 14 15q8 0 12.5 -7t14.5 -34q22 -62 61 -190q2 -5 21 -86q26 -113 39 -143q5 -10 15 -45t16 -47q6 -13 11 -13q8 0 24 49q9 26 38 87.5t40 101.5q5 19 15.5 54t17.5 62q18 61 36 134q11 51 20 71z" />
    <glyph glyph-name="W" unicode="W" horiz-adv-x="505" 
d="M418 679q4 13 16 13q11 0 14.5 -9t3.5 -38q0 -35 -10.5 -166.5t-14.5 -147.5q-5 -18 -9 -75q-6 -109 -13 -138t-28 -29q-13 0 -26.5 21.5t-57.5 114.5l-32 66l-10 -12q-10 -14 -10 -17q0 -4 -19 -34q-15 -23 -34 -60.5t-19 -44.5t-9.5 -15.5t-16.5 -8.5q-35 0 -53 139
q-35 265 -35 371q0 78 18 78q10 0 13 -17t3 -79q1 -85 29 -306q14 -127 22 -127q4 0 17 27q12 28 41 70q28 41 28 45q0 8 12 24.5t19 16.5q11 0 25 -22t48 -92q39 -84 44 -84q1 0 9 91q4 54 11.5 121t11.5 120q8 105 10 121q2 40 2 52v8q-4 10 0 23z" />
    <glyph glyph-name="X" unicode="X" horiz-adv-x="512" 
d="M60 715q8 8 16 8q10 0 35.5 -31.5t39.5 -60.5t47 -84t40 -61q8 -8 8 -14q0 -8 10 -20l9 -12l20 45q13 33 41 84q23 42 23 46q0 7 27 56q27 50 39 51h3q12 0 12 -12q0 -10 -5 -17q-32 -62 -55 -109q-26 -52 -32 -62q-11 -21 -31 -69t-20 -54q0 -5 33 -55t64 -93
q22 -30 46 -53q26 -25 26 -37v-6q-1 -10 -3.5 -13.5t-10.5 -3.5q-7 0 -18 11t-38 46q-92 119 -105 144q-10 20 -14 20t-30.5 -38.5t-26.5 -44.5q0 -3 -11 -18q-19 -28 -38 -68q-17 -33 -24 -42.5t-15 -9.5q-14 0 -14 13q0 19 25 56l13 26q19 43 48 86q31 47 36 57l12 20
l-14 33q-19 45 -45 75q-9 11 -36 61q-64 122 -79 122q-11 0 -11 17q0 6 3 11z" />
    <glyph glyph-name="Y" unicode="Y" horiz-adv-x="521" 
d="M434 706q8 11 15 11q4 0 12 -5q4 -3 4 -7q0 -19 -93 -117q-81 -87 -90 -100q-10 -16 -10 -66q0 -6 2 -126q1 -42 1 -103q0 -76 -4 -83q-6 -11 -18 -11q-8 0 -11 7q-2 3 -4 180l-2 174l-30 29q-24 22 -43 36q-9 6 -41.5 48.5t-54.5 75.5q-10 14 -10 26q0 11 11 11h4
q10 -1 44 -48q34 -48 71 -84.5t53 -38.5q1 0 3 -0.5t3 -0.5q11 0 35 25q5 5 35 40q14 16 60 64q51 51 58 63z" />
    <glyph glyph-name="Z" unicode="Z" horiz-adv-x="535" 
d="M139 740q76 6 215 6q104 0 109 -4q6 -3 6 -9q0 -13 -22 -36q-64 -70 -94 -119q-48 -77 -72 -147q-7 -20 -14 -34.5t-14 -33.5q-9 -29 -16 -35q-5 -3 -5 -14q0 -9 -26 -57.5t-47 -80.5l-19 -30h86q232 -2 249 -14q4 -3 4 -12q0 -14 -6 -17q-1 -1 -12 -1q-20 0 -47 3
q-21 2 -144 7q-60 2 -68 2q-35 0 -62 -7q-26 -6 -40 -6q-23 0 -23 16q0 12 15 29q73 87 118 203q75 189 112 244q8 12 15 23t10 16t8 11.5t11 13.5t17 19q24 28 24 33q0 3 -101 3h-72l-175 -2l-1 12q-2 12 0 12q1 1 81 6z" />
    <glyph glyph-name="a" unicode="a" horiz-adv-x="443" 
d="M152 490q10 9 30 9h6q14 -1 17.5 -3t3.5 -10t-3 -11t-13 -4q-12 -2 -29.5 -16t-27.5 -32q-48 -83 -48 -143q0 -33 13 -60q11 -23 22 -31t32 -8q33 0 67 63q15 29 15 43q0 3 -2 23q-1 11 -6 98q-1 19 -1 42q0 24 9 32q6 6 10 6t19 -15l19 -19l-4 -86l-3 -87l20 -39
q36 -70 74 -78q15 -3 15 -13q0 -20 -22 -20q-5 0 -8 1q-36 8 -72 62q-22 33 -27 33q-3 0 -6 -5q-6 -13 -28 -35.5t-33 -28.5q-20 -10 -48 -10q-13 0 -22 3q-30 11 -52 54q-15 29 -15 72q0 69 33 129q33 62 65 84z" />
    <glyph glyph-name="b" unicode="b" horiz-adv-x="349" 
d="M67 706q3 7 13 5l12 -1l2 -148q2 -149 5 -149q1 0 27 12q20 11 60 12q26 0 34.5 -2.5t20.5 -14.5q18 -18 25 -42q6 -25 16 -44q14 -28 14 -97q0 -25 -3 -43q-2 -15 -8 -25t-22 -27q-26 -28 -42 -35.5t-47 -7.5q-22 0 -30.5 2.5t-23.5 13.5q-19 16 -19 27q0 18 13 18
q10 0 22 -12q13 -13 39 -13q43 0 75 45q10 14 10 37q0 20 -1 35q-3 56 -13 76q-6 14 -14 42q-5 21 -24 30q-14 8 -21 8q-3 0 -27 -7t-33.5 -16t-17.5 -31q-14 -38 -19 -120q-4 -65 -12 -70t-17 2q-7 6 -7 37q0 5 2 79q3 87 5 262q2 154 6 162z" />
    <glyph glyph-name="c" unicode="c" horiz-adv-x="326" 
d="M160 466q16 8 44 8h10q28 -1 33 -2.5t7 -12.5l2 -15h-37q-27 0 -35.5 -3t-26.5 -18q-26 -22 -46 -52l-21 -32v-54q0 -54 11 -88q10 -31 28 -39.5t77 -11.5q56 -4 61 -12t-2 -18q-6 -7 -24 -7q-2 0 -42 2q-69 4 -92.5 20t-41.5 71q-11 30 -11 78q0 71 23 106
q10 16 40 44.5t43 35.5z" />
    <glyph glyph-name="d" unicode="d" horiz-adv-x="454" 
d="M239 407v32h-16q-19 -1 -31 -7.5t-38 -29.5q-29 -26 -49 -62q-13 -24 -15.5 -36.5t-2.5 -61.5q0 -48 2 -59t13 -20q28 -22 55 -22q4 0 6 1q7 3 21 26.5t19 42.5q11 37 23.5 106t12.5 90zM252 695q8 6 12 6q8 0 16 -17q8 -16 8 -112q0 -88 -7 -137q-4 -25 -4 -56
q0 -55 19 -125q15 -56 30 -75t58 -36q14 -6 14 -20q0 -9 -8 -10h-9q-20 0 -43 13q-26 15 -38 30.5t-25 51.5q-17 48 -23 48q-4 0 -5 -9q-8 -39 -18 -63q-9 -19 -11 -26q-4 -11 -18 -28t-22 -21q-9 -4 -22 -4q-29 0 -67 24q-21 14 -28 30.5t-7 56.5q0 5 0.5 16.5t0.5 18.5
q2 53 4.5 67.5t11.5 32.5q13 25 48 61t57 47t41 11h21l2 109q1 75 3 93t9 23z" />
    <glyph glyph-name="e" unicode="e" horiz-adv-x="353" 
d="M261 455q-8 5 -29 5q-39 0 -61 -11q-24 -12 -54.5 -49.5t-30.5 -55.5q0 -7 6 -7q5 0 56 12q55 14 78.5 31t34.5 51q6 20 0 24zM163 485q21 10 52 10q22 0 43 -4q43 -7 43 -40q0 -19 -12 -48q-5 -14 -27 -35.5t-41 -31.5q-12 -6 -60.5 -18.5t-61.5 -12.5q-8 0 -10.5 -3
t-2.5 -15q0 -25 22 -58t46 -45q16 -8 47 -8t60 8q28 7 30 7q6 0 6 -6q0 -1 -0.5 -3t-0.5 -4q-4 -33 -79 -37q-4 0 -10.5 -0.5t-9.5 -0.5q-29 0 -46.5 8t-42.5 30q-31 29 -42 55.5t-12 77.5v18q0 37 8 53q11 22 46.5 58.5t54.5 44.5z" />
    <glyph glyph-name="f" unicode="f" horiz-adv-x="390" 
d="M219 689q10 9 18.5 11t35.5 2q33 0 47 -7t14 -23q0 -8 -3 -10t-14 1q-15 3 -35 3q-38 0 -45 -7q-13 -13 -13 -105q0 -19 1 -27l2 -32l47 2l47 1v-12q0 -11 -11 -15.5t-50 -8.5l-35 -3l3 -83q1 -21 2.5 -76t2.5 -75q2 -40 2 -45q0 -24 -6 -32q-8 -11 -17 -5q-6 4 -9 30.5
t-7 127.5q-7 150 -10 153q-1 1 -3 1q-5 0 -55 -8q-42 -7 -58 -7h-4l-2 1q-8 3 -8 12q0 11 9 16q8 4 43.5 10.5t57.5 8.5l21 1l3 79q3 65 8 85t21 36z" />
    <glyph glyph-name="g" unicode="g" horiz-adv-x="349" 
d="M242 390q-3 17 -6 20t-15 3q-28 -1 -58.5 -27t-52.5 -68q-20 -40 -20 -67q0 -22 12 -46q8 -17 14 -23t16 -8t15 -2q22 0 48 25q22 22 32 63q16 60 16 108q0 15 -1 22zM241 455q3 5 10 5q13 0 18 -13q7 -18 17.5 -175t10.5 -243v-15q0 -57 -7.5 -81.5t-28.5 -42.5
q-16 -13 -25.5 -15.5t-45.5 -2.5q-33 0 -44 2t-19 10q-11 10 -11 25q0 19 12 19q8 0 15 -10q11 -12 28 -12q3 0 10 0.5t12 0.5q34 2 46.5 10.5t19.5 34.5q6 21 6 74q0 52 -7 120l-6 60l-25 -27q-21 -23 -35.5 -31t-37.5 -8q-2 0 -7.5 0.5t-8.5 0.5q-30 2 -42 10.5t-25 35.5
q-16 32 -16 54q0 13 3 30q8 53 45 102.5t80 65.5q27 10 43 10q11 0 15 6z" />
    <glyph glyph-name="h" unicode="h" horiz-adv-x="347" 
d="M58 693q5 8 13 8q7 0 12 -9q5 -10 5 -173t2 -165q1 -1 3 2t5.5 8.5t6.5 12.5q14 25 32 41q20 17 45 17q23 0 37 -13q13 -12 29 -48.5t24 -70.5q4 -22 15 -67q7 -29 7 -74q0 -46 -7 -52q-8 -7 -18 -1q-9 5 -9 27v16v17q0 24 -2 38q-24 110 -39.5 149t-36.5 41h-5
q-14 0 -24.5 -11t-25.5 -42q-36 -74 -41 -156q-4 -60 -6 -66q-3 -7 -12 -7.5t-14 6.5q-3 4 -3 161q0 399 7 411z" />
    <glyph glyph-name="i" unicode="i" horiz-adv-x="161" 
d="M62 513q9 13 19 13t17 -11.5t7 -29.5q0 -28 -20 -28q-8 0 -15 4q-16 8 -16 28q0 11 8 24zM83 379q5 5 13.5 3t10.5 -8q3 -7 3 -135q0 -93 -2.5 -118.5t-14.5 -25.5q-5 0 -8 1q-13 4 -13 24q0 10 3 31q4 38 4 129q2 97 4 99z" />
    <glyph glyph-name="j" unicode="j" horiz-adv-x="286" 
d="M195 533q7 6 14 6l22 -14q4 -4 4 -13q0 -23 -16 -37q-10 -10 -24 -10t-17 9q-1 3 -1 9q0 13 5.5 29t12.5 21zM199 370q5 6 7.5 6t8.5 -6q11 -11 11 -173q0 -114 -8 -160q-10 -59 -24.5 -76t-57.5 -17q-36 1 -57 15q-22 16 -22 30q0 8 8 12q11 5 23 -7t35 -16q6 -1 15 -1
q33 0 42.5 45.5t10.5 193.5q1 147 8 154z" />
    <glyph glyph-name="k" unicode="k" horiz-adv-x="384" 
d="M74 685q7 7 16 2q8 -4 8 -115v-90l-2 -200l25 28q60 70 136 146q12 14 23 14t11 -9q0 -27 -69 -93q-42 -40 -63 -66l-23 -29l36 -34q39 -37 65 -50q10 -6 28 -14.5t30.5 -16t22.5 -15.5q10 -10 10 -19q0 -13 -15 -13q-11 0 -20 8q-13 11 -57 33q-43 21 -86 61
q-43 41 -47 41t-11 -66q-5 -53 -10 -68.5t-17 -15.5q-14 0 -14 23q0 18 4 46q6 51 6 228v65q0 206 13 219z" />
    <glyph glyph-name="l" unicode="l" horiz-adv-x="238" 
d="M63 679q5 12 14 12q6 0 12 -7q5 -7 5 -20q0 -5 -2 -23q-4 -50 -4 -171q0 -142 5 -209q5 -68 11 -86q5 -17 18.5 -28.5t27.5 -11.5q13 0 22 -5.5t9 -13.5l-1 -2v-2q-4 -8 -32 -8q-18 0 -26 3.5t-23 15.5q-20 19 -28 49t-14 113q-3 48 -3 140q0 227 9 254z" />
    <glyph glyph-name="m" unicode="m" horiz-adv-x="469" 
d="M294 486q19 16 40 16q18 0 29 -11q20 -20 31 -102q20 -153 23 -226q0 -17 -1.5 -21t-9.5 -6q-12 -2 -14 5q-4 12 -14.5 90.5t-12.5 109.5q-8 107 -24 123q-5 5 -10 5q-12 0 -25.5 -18.5t-21.5 -47.5q-4 -14 -8 -147l-3 -129l-14 -1q-14 -2 -17 5q0 2 -10 99
q-15 184 -29 216q-6 14 -15 14q-16 0 -41 -51q-29 -56 -36 -215l-3 -87h-15q-11 0 -13.5 3t-5.5 18q-5 28 -9.5 102.5t-5.5 84.5q-5 65 -5 101q0 58 8 61q8 2 10 2q8 0 10 -10t3 -42q2 -53 5 -60l4 -13l3 16q9 36 37 81q28 43 48 43q8 0 17 -3q35 -11 43 -58q4 -20 7 -20
q4 0 16 29q11 28 29 44z" />
    <glyph glyph-name="n" unicode="n" horiz-adv-x="429" 
d="M229 477q11 3 19 3q19 0 46 -28q27 -27 33 -43q7 -20 19 -86q14 -82 20 -100q10 -29 10 -50q0 -13 -5 -20q-6 -8 -11 -8q-17 0 -41 137q-13 77 -21.5 101.5t-28.5 44.5q-14 15 -23 15q-6 0 -9 -1q-46 -10 -75 -64q-43 -80 -60 -181q-8 -45 -12 -55t-16 -10q-8 0 -11 6
t-5 31q-4 33 -4 163q0 106 3 114q4 9 11 9q14 0 18 -14.5t4 -64.5q0 -66 4 -66q3 0 10 22q36 116 125 145z" />
    <glyph glyph-name="o" unicode="o" horiz-adv-x="416" 
d="M232 475q-2 5 -29 5q-34 0 -40 -7q-8 -8 -19 -8q-12 0 -27.5 -19t-20.5 -41q-6 -24 -6 -65q0 -37 9.5 -60.5t37.5 -56.5q19 -23 32.5 -31.5t32.5 -8.5q5 0 21 2q37 4 48 10q16 8 34 30t23 40q4 15 4 43q0 62 -14 88q-10 19 -37.5 46.5t-36.5 27.5t-12 5zM130 503
q13 13 32 13q17 0 30 -1q37 -2 47.5 -5.5t35.5 -20.5q51 -34 80 -91q9 -18 9 -84q0 -46 -6 -67q-5 -19 -32.5 -48.5t-47.5 -38.5q-22 -10 -67 -10q-27 0 -43 4q-24 4 -55.5 44.5t-48.5 86.5q-9 26 -9 49q0 17 1 30q3 39 16.5 70.5t31.5 44.5q13 10 26 24z" />
    <glyph glyph-name="p" unicode="p" horiz-adv-x="358" 
d="M230 429q-18 10 -41 10q-24 0 -51 -11q-26 -11 -28 -13t-4 -112l-2 -110l16 -3q15 -3 30 -3q62 0 108 76q14 25 14 68q0 44 -13 66q-14 24 -29 32zM154 469q14 3 28 3q54 0 85 -31q23 -24 31 -45t8 -56q0 -44 -5 -64q-5 -17 -26 -47.5t-40 -48.5q-13 -11 -45.5 -20
t-64.5 -10l-26 -1v-52q-2 -175 -15 -211q-6 -13 -14 -13q-7 0 -12 4q-5 3 -5 17q0 1 4 51q7 63 9 144q7 261 10.5 319t13.5 58q1 0 3 -1t4.5 -2t4.5 -2q14 -6 23 -1t29 9z" />
    <glyph glyph-name="q" unicode="q" horiz-adv-x="459" 
d="M293 -45q1 0 47 23t48 23q3 0 10 -11q5 -12 -1 -17q-7 -7 -63 -36t-63 -29q-10 0 -13.5 15t-3.5 66q0 59 1 102l3 160l-12 -26q-11 -24 -20 -33.5t-39 -33.5q-22 -17 -32 -21.5t-28 -4.5q-36 0 -53 22.5t-20 73.5v12q0 63 54 139q23 33 61 59.5t60 26.5q14 0 14 -13
q0 -12 -9 -16q-54 -17 -95 -70q-30 -38 -39.5 -61.5t-10.5 -63.5q0 -5 -0.5 -12.5t-0.5 -10.5q0 -26 11 -38q11 -14 28 -14q15 0 28 9q46 31 59 57q15 28 30.5 87t20.5 102q6 58 10 64q6 6 12 6q9 0 12 -8t3 -33q0 -36 -2 -65q-10 -182 -10 -364q0 -66 3 -66z" />
    <glyph glyph-name="r" unicode="r" horiz-adv-x="362" 
d="M242 475q37 4 40 5q6 0 17 -3q11 -4 10 -17q-1 -10 -6.5 -12t-31.5 -5q-96 -9 -134 -63q-34 -50 -34 -185q0 -83 -5 -91q-6 -10 -13 -10q-11 0 -17 19q-15 50 -15 214v35l2 95h13q9 0 11 -6t4 -40l3 -47l9 16q10 15 36.5 42t31.5 27t25 11q17 9 54 15z" />
    <glyph glyph-name="s" unicode="s" horiz-adv-x="372" 
d="M170 480q52 15 63 15q19 0 19 -14q0 -21 -26 -21q-25 0 -86 -29q-31 -15 -42 -30.5t-11 -43.5q0 -21 13 -33q9 -8 21 -10.5t56 -4.5q47 -2 58.5 -5t32.5 -18q51 -35 51 -91q0 -62 -74 -93q-17 -8 -73 -8q-55 0 -60 8q-7 8 -1 17q5 8 56 8q41 0 62.5 6.5t40.5 25.5
q13 15 13 38q0 21 -11 40q-12 20 -32.5 27.5t-72.5 9.5q-54 3 -73 10.5t-31 30.5q-8 15 -8 35q0 13 1 21q2 35 19 56q30 38 95 53z" />
    <glyph glyph-name="t" unicode="t" horiz-adv-x="396" 
d="M180 590q4 9 15 9q9 0 12 -9l1 -2v-3q0 -10 -6 -34q-7 -28 -7 -43v-14l64 3q14 1 35 1q25 0 32.5 -4t7.5 -15q0 -8 -13.5 -11t-65.5 -5q-58 -4 -61 -7q-12 -12 -14 -183v-29q0 -58 4.5 -76.5t21.5 -29.5q12 -9 30 -9q46 0 70 38q13 19 22 19q5 0 11 -7q4 -6 4 -11
q0 -13 -20 -36q-33 -37 -85 -37q-58 0 -80 42q-8 15 -10 33.5t-2 88.5q0 112 4 145l4 45l-47 2q-33 2 -41 3.5t-9 7.5q0 1 -1 3v2q0 8 11 12t41 5q42 2 45 6q10 10 18 68q4 23 9 32z" />
    <glyph glyph-name="u" unicode="u" horiz-adv-x="437" 
d="M60 469q5 7 16 5q8 -1 9.5 -17.5t2.5 -110.5q0 -130 1 -136q1 -11 17.5 -17.5t38.5 -6.5q29 0 43 12q29 26 42.5 64.5t16.5 103.5q2 59 5 78.5t11 26.5q8 6 16 -2t8 -85q0 -48 -1 -79v-8q0 -63 31 -86q18 -11 38 -13q27 -3 27 -14q0 -6 -6 -13q-10 -10 -23 -10
q-15 0 -40 12q-38 18 -50 52q-4 10 -12 -5t-27 -35t-32 -27t-40 -7q-28 0 -54.5 7.5t-35.5 18.5q-8 9 -8 59q0 49 1 90q2 137 5 143z" />
    <glyph glyph-name="v" unicode="v" horiz-adv-x="411" 
d="M314 472q20 29 31 29t11 -17q0 -12 -15 -35q-28 -43 -58 -141q-36 -127 -51 -151q-8 -11 -18 -11q-12 0 -25 13t-19 33q-3 11 -28 49q-36 53 -69 150q-17 53 -17 67t11 16h3l1 1q10 0 20 -33q5 -21 31.5 -88t30.5 -69q4 -3 27 -37.5t26 -42.5l2 -2q5 0 25 60q22 70 22 76
q0 11 22.5 61.5t36.5 71.5z" />
    <glyph glyph-name="w" unicode="w" horiz-adv-x="499" 
d="M253 289q0 -7 -10.5 -31.5t-10.5 -29.5q0 -7 -15 -39q-23 -49 -48 -49q-10 0 -22.5 19.5t-17.5 45.5q-8 33 -16 51q-21 49 -39.5 110.5t-18.5 85.5q0 5 2 9q5 9 10 9q12 0 21 -36q7 -28 27 -87t24 -65q10 -14 26 -73q5 -22 10 -22q8 0 46 110q11 30 16 68q8 48 24 48
q13 0 23 -39q16 -62 82 -165q8 -12 13 -12q7 0 10 19q22 112 27 209q2 48 4 59.5t9 11.5q11 0 15 -11t4 -45q0 -28 -1 -46q-3 -82 -14 -130q-10 -45 -10 -68q0 -19 -9 -30q-6 -9 -20 -9q-21 0 -41 18q-12 11 -41 56t-39 68q-5 13 -6.5 13.5t-6.5 -5.5q-7 -9 -7 -18z" />
    <glyph glyph-name="x" unicode="x" horiz-adv-x="388" 
d="M284 476q5 4 6 4t9 -3t8 -13q0 -13 -29 -65t-56 -87q-18 -23 -18 -31q0 -7 30 -44q41 -54 46 -61q19 -27 35 -42q16 -16 16 -28q0 -8 -9 -14q-1 -1 -5 -1q-22 0 -55 51q-9 13 -27 35t-30 42q-17 24 -23 24q-7 0 -26 -37q-20 -37 -31 -53q-1 -2 -6 -10t-9 -13.5t-10 -10.5
t-11 -5t-10 5q-3 3 -3 9q0 22 17 42q12 14 36 60l25 47l-26 38q-26 38 -49 83.5t-23 56.5q0 10 12 10q9 0 15 -7q5 -4 29.5 -47.5t24.5 -47.5q0 -5 31 -44q5 -6 7.5 -6t9.5 6q8 8 26.5 35.5t18.5 32.5t7 10q3 3 23 39.5t24 39.5z" />
    <glyph glyph-name="y" unicode="y" horiz-adv-x="322" 
d="M203 479q13 13 24 0q6 -7 9 -100q4 -98 5 -101q3 -6 10 -77q8 -77 12 -99q5 -28 5 -72v-11q0 -31 -13 -56q-21 -42 -42 -58.5t-53 -16.5q-24 0 -42.5 14.5t-38.5 50.5q-9 17 -9 26q0 12 16 12q13 0 23 -22q20 -45 55 -45q2 0 4 0.5t4 0.5q17 2 27.5 12t23.5 37q9 17 9 44
q0 17 -1 30q-1 43 -10 115t-14 77q-3 5 -15 -14q-11 -19 -32 -37t-31 -18q-14 0 -31 13.5t-27 33.5q-10 19 -12 36.5t-4 99.5q-1 27 -1 64q0 48 7 55q8 8 13 8q13 0 13 -81q0 -96 7 -137t26 -51q3 -2 7 -2q7 0 21 15q49 52 49 187q0 61 6 67z" />
    <glyph glyph-name="z" unicode="z" horiz-adv-x="374" 
d="M164 496l114 4h3q17 0 17 -24q0 -10 -20 -50q-68 -125 -68 -128q0 -2 20 -9q41 -14 41 -30q0 -14 -17 -14q-10 0 -23 6q-13 8 -30 8q-10 0 -16.5 -9.5t-27.5 -58.5q-27 -61 -27 -70q0 -3 37 -3q93 0 115 7q12 3 20 3q15 0 15 -14q0 -17 -21 -21.5t-116 -9.5
q-52 -2 -63 -2q-46 0 -46 14q0 8 15 31q11 16 37 69.5t26 63.5q0 4 -22.5 13.5t-46.5 14.5q-15 3 -15 14q0 9 13 15q6 3 12 3q9 0 41 -9q29 -8 38 -8q4 0 4 1q1 4 25 46q40 69 50 99l4 12h-89q-65 0 -86 3.5t-21 15.5q0 1 0.5 2.5t0.5 2.5q1 7 16 8.5t91 3.5z" />
    <glyph glyph-name="nbsp" unicode="&#xa0;" 
 />
  </font>
</defs>
</svg>
